<svg height="1em" style="flex:none;line-height:1" viewBox="0 0 24 24" width="1em" xmlns="http://www.w3.org/2000/svg"><title>Meta</title><path d="M7.5 15.5c1.8-4.2 4-6.2 6.3-6.2 2.2 0 3.9 1.8 6.2 5.7.6 1 1.1 1.6 1.8 1.6 1 0 1.7-.9 1.7-2.2 0-1.5-.8-2.5-2-2.5-1.9 0-3.8 1.8-5.8 5.2-1.7 3-3.8 4.8-6 4.8-2.2 0-4.1-1.7-5.8-4.8-2-3.4-3.9-5.2-5.8-5.2-1.2 0-2 .9-2 2.5 0 1.3.7 2.2 1.7 2.2.7 0 1.2-.6 1.8-1.6 2.3-3.9 4-5.7 6.2-5.7 2.3 0 4.5 2 6.3 6.2" fill="none" stroke="currentColor" stroke-linecap="round" stroke-width="1.7"/></svg>
