<?xml version="1.0" standalone="no"?>
<!DOCTYPE svg PUBLIC "-//W3C//DTD SVG 20010904//EN"
 "http://www.w3.org/TR/2001/REC-SVG-20010904/DTD/svg10.dtd">
<svg version="1.0" xmlns="http://www.w3.org/2000/svg"
 width="100.000000pt" height="100.000000pt" viewBox="0 0 100.000000 100.000000"
 preserveAspectRatio="xMidYMid meet">

<g transform="translate(0.000000,100.000000) scale(0.100000,-0.100000)"
fill="#000000" stroke="none">
<path d="M118 821 c-33 -29 -33 -30 -33 -123 l0 -93 112 -3 111 -3 59 85 c32
47 61 86 65 86 5 0 39 -62 77 -137 l68 -138 32 52 32 52 137 3 137 3 3 123 3
122 -386 0 -385 0 -32 -29z"/>
<path d="M389 608 c-17 -24 -33 -49 -36 -55 -4 -10 -41 -13 -139 -13 l-134 0
0 -135 0 -135 375 0 c418 0 424 1 451 65 8 21 14 69 14 120 l0 85 -122 0 -123
0 -27 -48 c-15 -26 -38 -65 -52 -86 l-24 -40 -71 142 c-39 78 -73 142 -76 142
-3 0 -19 -19 -36 -42z"/>
<path d="M420 181 c0 -26 -3 -29 -47 -34 -50 -5 -83 -32 -83 -68 0 -18 11 -19
210 -19 199 0 210 1 210 19 0 36 -33 63 -83 68 -44 5 -47 8 -47 34 l0 29 -80
0 -80 0 0 -29z"/>
</g>
</svg>
