<svg width="290" height="270" viewBox="0 0 290 270" fill="none" xmlns="http://www.w3.org/2000/svg">
<path fill-rule="evenodd" clip-rule="evenodd" d="M204.104 0C251.35 0.000210952 289.65 37.6826 289.65 84.166C289.65 130.482 251.626 168.057 204.616 168.328C201.769 170.972 199.064 174.767 196.624 180.146C183.455 209.174 177.159 223.181 165.869 248.123C159.831 261.461 146.287 269.8 131.658 269.186C117.696 268.599 105.342 259.968 99.9892 247.06L0.193252 6.41113C-0.489422 4.76493 0.720678 2.95312 2.50282 2.95312H45.0829C55.0568 2.95321 64.0762 8.88221 68.0321 18.0381L152.612 213.798C156.303 222.338 168.633 221.653 171.354 212.756L178.166 190.481L185.812 166.395L199.048 124.191C200.464 124.34 201.903 124.419 203.36 124.419C225.545 124.419 243.529 106.724 243.529 84.8975C243.529 63.0709 225.545 45.3773 203.36 45.377C181.176 45.377 163.191 63.0706 163.19 84.8975C163.19 98.5654 170.243 110.612 180.963 117.709L167.604 160.307C138.615 146.831 118.558 117.804 118.558 84.166C118.559 37.6825 156.859 3.38256e-06 204.104 0Z" fill="#326BC8"/>
</svg>
