<svg width="124" height="115" viewBox="0 0 124 115" fill="none" xmlns="http://www.w3.org/2000/svg">
<path d="M87.3963 0C107.504 0.000141985 123.804 16.0378 123.805 35.8213C123.805 55.605 107.504 71.6434 87.3963 71.6436C84.7237 71.6436 82.119 71.3571 79.6102 70.8193L85.243 52.8574C85.8462 52.9208 86.4587 52.9541 87.0789 52.9541C96.521 52.9541 104.176 45.4226 104.176 36.1328C104.175 26.8432 96.5209 19.3125 87.0789 19.3125C77.6371 19.3126 69.9834 26.8433 69.9832 36.1328C69.9832 41.9499 72.9847 47.0769 77.5467 50.0977L71.8612 68.2256C59.5239 62.4899 50.9871 50.1372 50.9871 35.8213C50.9874 16.0377 67.2884 3.38228e-06 87.3963 0Z" fill="white"/>
<path d="M56.5625 114.567C50.6203 114.318 45.3623 110.644 43.0841 105.15L1.43387 4.71452C0.751199 3.06831 1.96104 1.25687 3.74318 1.25687L10.277 1.25687C20.2509 1.25687 29.2706 7.18539 33.2265 16.3413L61.5487 81.8932C64.4642 88.6411 74.2071 88.0995 76.3567 81.0701L82.6412 61.2739L98.6667 69.758C94.2676 69.1295 88.3463 67.5584 84.2124 76.6709C78.6075 89.0257 75.9284 94.9874 71.1232 105.603C68.5534 111.28 62.7885 114.829 56.5625 114.567Z" fill="white"/>
</svg>
